<svg width="18" height="18" viewBox="0 0 18 18" fill="none" xmlns="http://www.w3.org/2000/svg">
<path d="M17.9955 17.9992V17.9984H18V11.3969C18 8.16744 17.3047 5.67969 13.5292 5.67969C11.7142 5.67969 10.4962 6.67569 9.99896 7.61994H9.94646V5.98119H6.3667V17.9984H10.0942V12.0479C10.0942 10.4812 10.3912 8.96619 12.3315 8.96619C14.2432 8.96619 14.2717 10.7542 14.2717 12.1484V17.9992H17.9955Z" fill="white"/>
<path d="M0.296997 5.98242H4.029V17.9997H0.296997V5.98242Z" fill="white"/>
<path d="M2.1615 0C0.96825 0 0 0.96825 0 2.1615C0 3.35475 0.96825 4.34325 2.1615 4.34325C3.35475 4.34325 4.323 3.35475 4.323 2.1615C4.32225 0.96825 3.354 0 2.1615 0V0Z" fill="white"/>
</svg>
