<svg width="16" height="16" viewBox="0 0 16 16" fill="none" xmlns="http://www.w3.org/2000/svg">
<path d="M15.0007 8.15571C15.0007 7.58016 14.953 7.16016 14.8499 6.72461H8.14355V9.32236H12.08C12.0007 9.96793 11.5721 10.9402 10.6197 11.5935L10.6064 11.6804L12.7268 13.2902L12.8737 13.3046C14.2229 12.0835 15.0007 10.2868 15.0007 8.15571" fill="#4285F4"/>
<path d="M8.14266 15.0004C10.0712 15.0004 11.6902 14.3781 12.8728 13.3048L10.6188 11.5936C10.0157 12.0059 9.20613 12.2936 8.14266 12.2936C6.25379 12.2936 4.65064 11.0726 4.07916 9.38477L3.99539 9.39174L1.79055 11.064L1.76172 11.1425C2.93631 13.4292 5.349 15.0004 8.14266 15.0004Z" fill="#34A853"/>
<path d="M4.08031 9.38497C3.92952 8.94942 3.84225 8.48272 3.84225 8.00052C3.84225 7.51827 3.92952 7.05162 4.07237 6.61607L4.06838 6.52331L1.8359 4.82422L1.76286 4.85827C1.27876 5.80717 1.00098 6.87274 1.00098 8.00052C1.00098 9.12829 1.27876 10.1938 1.76286 11.1427L4.08031 9.38497" fill="#FBBC05"/>
<path d="M8.1427 3.70665C9.48395 3.70665 10.3887 4.27442 10.9046 4.7489L12.9205 2.82C11.6824 1.69223 10.0712 1 8.1427 1C5.34902 1 2.93631 2.5711 1.76172 4.85775L4.07124 6.61555C4.65065 4.92777 6.25382 3.70665 8.1427 3.70665" fill="#EB4335"/>
</svg>
