<svg width="30" height="28" viewBox="0 0 30 28" fill="none" xmlns="http://www.w3.org/2000/svg">
<path d="M3.05469 16.9912C3.05474 17.4112 3.11761 17.831 3.2666 18.3301L3.30957 18.4727C3.94174 20.3582 5.68213 21.625 7.63867 21.625H25.3818L24.2812 25.165C23.9694 26.3687 22.8568 27.1855 21.6396 27.1855C21.4021 27.1854 21.1654 27.1542 20.9355 27.0938L2.03516 21.9766C0.577397 21.5698 -0.291457 20.0439 0.0898438 18.5723L3.05469 8.56543V16.9912ZM26.2773 0C27.9616 0 29.3338 1.38616 29.334 3.08887V16.6816C29.334 18.3845 27.9617 19.7715 26.2773 19.7715H7.94434C6.26026 19.7715 4.88867 18.3845 4.88867 16.6816V3.08887C4.88884 1.38616 6.26037 0 7.94434 0H26.2773ZM7.94434 2.47168C7.60719 2.47168 7.33315 2.74781 7.33301 3.08887V14.7529L10.7061 11.3438C11.5409 10.4986 12.9014 10.4986 13.7373 11.3438L15.2168 12.835L19.7559 7.32617C20.1616 6.83439 20.7557 6.55051 21.3887 6.54688C22.0254 6.56153 22.6187 6.82106 23.0283 7.30664L26.8887 11.8613V3.08887C26.8885 2.74784 26.6148 2.47168 26.2773 2.47168H7.94434ZM11 3.70703C12.348 3.70715 13.4441 4.81501 13.4443 6.17773C13.4443 7.54067 12.3481 8.64929 11 8.64941C9.65184 8.64941 8.55566 7.54068 8.55566 6.17773C8.5559 4.81499 9.65193 3.70703 11 3.70703Z" fill="#05293E"/>
</svg>
