<svg width="19" height="19" viewBox="0 0 19 19" fill="none" xmlns="http://www.w3.org/2000/svg">
<path d="M9.31641 0C9.66797 0 9.94922 0.210938 10.0898 0.492188L12.5156 5.44922L17.8945 6.25781C18.2109 6.29297 18.457 6.53906 18.5625 6.82031C18.668 7.13672 18.5977 7.45312 18.3516 7.69922L14.4492 11.5664L15.3633 17.0156C15.4336 17.332 15.293 17.6836 15.0469 17.8594C14.7656 18.0352 14.4141 18.0703 14.1328 17.9297L9.31641 15.3281L4.5 17.9297C4.21875 18.0703 3.90234 18.0352 3.62109 17.8594C3.375 17.6836 3.23438 17.332 3.26953 17.0156L4.21875 11.5664L0.316406 7.69922C0.0703125 7.45312 0 7.13672 0.105469 6.82031C0.210938 6.53906 0.457031 6.29297 0.773438 6.25781L6.15234 5.44922L8.57812 0.492188C8.71875 0.210938 9 0 9.31641 0ZM9.31641 2.77734L7.48828 6.60938C7.34766 6.85547 7.13672 7.03125 6.85547 7.06641L2.67188 7.66406L5.69531 10.6523C5.90625 10.8633 5.97656 11.1445 5.94141 11.4258L5.23828 15.6094L8.92969 13.6406C9.17578 13.5 9.49219 13.5 9.73828 13.6406L13.4297 15.6094L12.7266 11.4258C12.6562 11.1445 12.7617 10.8633 12.9727 10.6523L15.9609 7.66406L11.8125 7.06641C11.5312 7.03125 11.2852 6.85547 11.1797 6.60938L9.31641 2.77734Z" fill="#3E3232" fill-opacity="0.5"/>
</svg>
