<svg width="16" height="16" viewBox="0 0 16 16" fill="none" xmlns="http://www.w3.org/2000/svg">
<path d="M13.92 1.22667H12.48V0.48C12.48 0.337777 12.4356 0.222221 12.3467 0.133333C12.2578 0.0444441 12.1422 0 12 0C11.8578 0 11.7422 0.0444441 11.6533 0.133333C11.5644 0.222221 11.52 0.337777 11.52 0.48V1.22667H4.48V0.48C4.48 0.337777 4.43556 0.222221 4.34667 0.133333C4.25778 0.0444441 4.14222 0 4 0C3.85778 0 3.74222 0.0444441 3.65333 0.133333C3.56444 0.222221 3.52 0.337777 3.52 0.48V1.22667H2.08C1.51111 1.22667 1.02222 1.43111 0.613333 1.84C0.204444 2.24889 0 2.73778 0 3.30667V13.92C0 14.4889 0.204444 14.9778 0.613333 15.3867C1.02222 15.7956 1.51111 16 2.08 16H13.92C14.4889 16 14.9778 15.7956 15.3867 15.3867C15.7956 14.9778 16 14.4889 16 13.92V3.30667C16 2.73778 15.7956 2.24889 15.3867 1.84C14.9778 1.43111 14.4889 1.22667 13.92 1.22667ZM2.08 2.24H3.52V2.77333C3.52 2.88 3.56444 2.98667 3.65333 3.09333C3.74222 3.2 3.85778 3.25333 4 3.25333C4.14222 3.25333 4.25778 3.2 4.34667 3.09333C4.43556 2.98667 4.48 2.88 4.48 2.77333V2.24H11.52V2.77333C11.52 2.88 11.5644 2.98667 11.6533 3.09333C11.7422 3.2 11.8578 3.25333 12 3.25333C12.1422 3.25333 12.2578 3.2 12.3467 3.09333C12.4356 2.98667 12.48 2.88 12.48 2.77333V2.24H13.92C14.24 2.24 14.4978 2.34667 14.6933 2.56C14.8889 2.77333 14.9867 3.02222 14.9867 3.30667V4.48H1.01333V3.30667C1.01333 3.02222 1.11111 2.77333 1.30667 2.56C1.50222 2.34667 1.76 2.24 2.08 2.24ZM13.92 14.9867H2.08C1.76 14.9867 1.50222 14.8889 1.30667 14.6933C1.11111 14.4978 1.01333 14.24 1.01333 13.92V5.49333H14.9867V13.92C14.9867 14.24 14.8889 14.4978 14.6933 14.6933C14.4978 14.8889 14.24 14.9867 13.92 14.9867Z" fill="#BACCE1"/>
</svg>
