<svg width="16" height="16" viewBox="0 0 16 16" fill="none" xmlns="http://www.w3.org/2000/svg">
<path d="M13.6533 2.34667C12.9067 1.6 12.0444 1.02222 11.0667 0.613333C10.0889 0.204444 9.06667 0 8 0C6.93333 0 5.91111 0.204444 4.93333 0.613333C3.95556 1.02222 3.09333 1.6 2.34667 2.34667C1.6 3.09333 1.02222 3.95555 0.613333 4.93333C0.204444 5.91111 0 6.93333 0 8C0 9.06667 0.204444 10.0889 0.613333 11.0667C1.02222 12.0444 1.6 12.9067 2.34667 13.6533C3.09333 14.4 3.95556 14.9778 4.93333 15.3867C5.91111 15.7956 6.93333 16 8 16C9.06667 16 10.0889 15.7956 11.0667 15.3867C12.0444 14.9778 12.9067 14.4 13.6533 13.6533C14.4 12.9067 14.9778 12.0444 15.3867 11.0667C15.7956 10.0889 16 9.06667 16 8C16 6.93333 15.7956 5.91111 15.3867 4.93333C14.9778 3.95555 14.4 3.09333 13.6533 2.34667ZM3.46667 13.44C3.57333 12.6933 3.84 12.0089 4.26667 11.3867C4.69333 10.7644 5.23556 10.2756 5.89333 9.92C6.55111 9.56444 7.25333 9.38667 8 9.38667C8.60444 9.38667 9.18222 9.50222 9.73333 9.73333C10.2844 9.96444 10.7733 10.2933 11.2 10.72C11.9467 11.4667 12.3911 12.3733 12.5333 13.44C11.8933 13.9378 11.1911 14.3289 10.4267 14.6133C9.66222 14.8978 8.85333 15.04 8 15.04C7.14667 15.04 6.33778 14.8978 5.57333 14.6133C4.80889 14.3289 4.10667 13.9378 3.46667 13.44ZM8 8.42667C7.32444 8.42667 6.74667 8.18667 6.26667 7.70667C5.78667 7.22667 5.54667 6.65778 5.54667 6C5.54667 5.34222 5.78667 4.77333 6.26667 4.29333C6.74667 3.81333 7.32444 3.57333 8 3.57333C8.67556 3.57333 9.25333 3.81333 9.73333 4.29333C10.2133 4.77333 10.4533 5.34222 10.4533 6C10.4533 6.65778 10.2133 7.22667 9.73333 7.70667C9.25333 8.18667 8.67556 8.42667 8 8.42667ZM13.3333 12.64C13.0844 11.6444 12.6044 10.7911 11.8933 10.08C11.3244 9.47556 10.6489 9.04889 9.86667 8.8C10.3289 8.48 10.6933 8.07111 10.96 7.57333C11.2267 7.07556 11.36 6.53333 11.36 5.94667C11.36 5.36 11.2089 4.80889 10.9067 4.29333C10.6044 3.77778 10.1956 3.36889 9.68 3.06667C9.16444 2.76444 8.60444 2.61333 8 2.61333C7.39556 2.61333 6.83556 2.76444 6.32 3.06667C5.80444 3.36889 5.39556 3.77778 5.09333 4.29333C4.79111 4.80889 4.64 5.36 4.64 5.94667C4.64 6.53333 4.77333 7.07556 5.04 7.57333C5.30667 8.07111 5.67111 8.48 6.13333 8.8C5.42222 9.04889 4.8 9.42222 4.26667 9.92C3.44889 10.6667 2.91556 11.5733 2.66667 12.64C2.13333 12 1.71556 11.28 1.41333 10.48C1.11111 9.68 0.96 8.85333 0.96 8C0.96 6.72 1.27111 5.53778 1.89333 4.45333C2.51556 3.36889 3.36889 2.51556 4.45333 1.89333C5.53778 1.27111 6.72 0.96 8 0.96C9.28 0.96 10.4622 1.27111 11.5467 1.89333C12.6311 2.51556 13.4844 3.36889 14.1067 4.45333C14.7289 5.53778 15.04 6.72 15.04 8C15.04 8.85333 14.8889 9.68 14.5867 10.48C14.2844 11.28 13.8667 12 13.3333 12.64Z" fill="#BACCE1"/>
</svg>
