<svg width="17" height="16" viewBox="0 0 17 16" fill="none" xmlns="http://www.w3.org/2000/svg">
<path d="M7.96 8.15906L10.9467 10.3991C11.0533 10.5057 11.1778 10.5502 11.32 10.5324C11.4622 10.5146 11.5689 10.4435 11.64 10.3191C11.7111 10.1946 11.7378 10.0702 11.72 9.94573C11.7022 9.82128 11.64 9.70573 11.5333 9.59906L8.76 7.51906V3.2524C8.76 3.11017 8.71556 2.99462 8.62667 2.90573C8.53778 2.81684 8.42222 2.7724 8.28 2.7724C8.13778 2.7724 8.01333 2.81684 7.90667 2.90573C7.8 2.99462 7.74667 3.11017 7.74667 3.2524V7.78573C7.74667 7.96351 7.81778 8.08795 7.96 8.15906ZM8.49333 -0.000937462C7.32 -0.000937462 6.2 0.274618 5.13333 0.825728C4.06667 1.37684 3.17778 2.12351 2.46667 3.06573C1.75556 4.00795 1.31111 5.08351 1.13333 6.2924L0.92 5.9724C0.848889 5.86573 0.742222 5.80351 0.6 5.78573C0.457778 5.76795 0.333333 5.79462 0.226667 5.86573C0.12 5.93684 0.0488889 6.04351 0.0133333 6.18573C-0.0222222 6.32795 0.0133333 6.4524 0.12 6.55906L1.08 8.0524C1.18667 8.19462 1.31111 8.26573 1.45333 8.26573H1.50667C1.64889 8.26573 1.77333 8.2124 1.88 8.10573L3.10667 6.87906C3.21333 6.7724 3.26667 6.64795 3.26667 6.50573C3.26667 6.36351 3.21333 6.24795 3.10667 6.15906C3 6.07017 2.88444 6.02573 2.76 6.02573C2.63556 6.02573 2.52 6.07906 2.41333 6.18573L2.09333 6.4524C2.27111 5.31462 2.73333 4.30128 3.48 3.4124C4.22667 2.52351 5.13333 1.86573 6.2 1.43906C7.26667 1.0124 8.38667 0.89684 9.56 1.0924C10.7333 1.28795 11.7644 1.75017 12.6533 2.47906C13.5422 3.20795 14.1911 4.11462 14.6 5.19906C15.0089 6.28351 15.1244 7.4124 14.9467 8.58573C14.7689 9.61684 14.3778 10.5413 13.7733 11.3591C13.1689 12.1768 12.4044 12.8257 11.48 13.3057C10.5556 13.7857 9.57778 14.0257 8.54667 14.0257C7.51556 14.0257 6.54667 13.8035 5.64 13.3591C4.73333 12.9146 3.99556 12.2835 3.42667 11.4657C3.35556 11.3591 3.24889 11.2968 3.10667 11.2791C2.96444 11.2613 2.84 11.288 2.73333 11.3591C2.62667 11.4302 2.55556 11.5368 2.52 11.6791C2.48444 11.8213 2.52 11.9457 2.62667 12.0524C3.30222 13.0124 4.16444 13.7502 5.21333 14.2657C6.26222 14.7813 7.35556 15.0391 8.49333 15.0391C9.88 15.0391 11.1422 14.7013 12.28 14.0257C13.4178 13.3502 14.3244 12.4346 15 11.2791C15.6756 10.1235 16.0133 8.87017 16.0133 7.51906C16.0133 6.16795 15.6756 4.91462 15 3.75906C14.3244 2.60351 13.4178 1.68795 12.28 1.0124C11.1422 0.33684 9.88 -0.000937462 8.49333 -0.000937462Z" fill="#BACCE1"/>
</svg>
